:SAMPLES-PER-SECOND 30
:FULLY-SPECIFIED
:DEGREES
661
root  -33.7025 34.7239 4.52713 -167.145 45.929 -176.438
RightUpLeg  -9.05164 -21.87 6.3502
RightLeg  0.0801785 -0.131722 0.008323
RightFoot  7.1409 0.0239048 0.148111
RightToes  -21.9836 -0.0927902 -0.192576
Spine  -1.20318 -0.275939 1.31441
Spine1  -2.41079 -0.388111 3.35822
HEad  -69.0255 -13.8815 8.43167
LeftShoulder1  -1.94126e-019 -3.10601e-018 -2.51263e-017
LeftArm  20.1049 23.8438 -75.2367
LeftForeArm  129.905 -74.62 -137.675
LeftHand  0.229869 -1.60294 -3.74198
RightShoulder  -4.96962e-017 0 -2.36833e-017
RightArm  17.8798 -24.8297 65.3082
RightForeArm  134.248 80.3914 110.681
RightHand  -0.0933852 1.96836 -1.64585
LeftUpLeg  -14.7965 -4.95027 14.1715
LeftLeg  17.0943 3.29665 0.783188
LeftFoot  0.868665 0.00713581 0.219647
LeftToes  -31.2657 1.49739e-006 1.00523e-007
662
root  -33.955 34.7028 4.24467 -166.86 45.9256 -176
RightUpLeg  -9.00498 -22.049 6.01762
RightLeg  0.0695136 0.0744135 -0.00468112
RightFoot  7.5846 0.0237347 0.173155
RightToes  -23.3551 -0.100941 -0.203235
Spine  -1.18017 -0.162806 1.40083
Spine1  -2.35771 -0.161596 3.52994
HEad  -69.515 -14.7728 8.68608
LeftShoulder1  -1.94126e-019 -3.10601e-018 -2.51263e-017
LeftArm  19.8017 24.1838 -75.274
LeftForeArm  129.894 -74.5745 -137.802
LeftHand  0.230782 -1.50475 -3.87545
RightShoulder  -4.96962e-017 0 -2.36833e-017
RightArm  18.2089 -24.6679 65.1106
RightForeArm  134.276 80.4196 110.43
RightHand  -0.0955554 2.13323 -1.65679
LeftUpLeg  -15.2634 -5.34904 14.1534
LeftLeg  17.462 2.68544 0.655839
LeftFoot  1.18515 0.00659345 0.226127
LeftToes  -31.2569 1.49739e-006 1.00523e-007
663
root  -34.2254 34.6748 3.91655 -166.49 45.9525 -175.443
RightUpLeg  -8.90795 -22.1696 5.67992
RightLeg  0.0143575 0.236761 -0.0151838
RightFoot  8.08672 0.0237271 0.195151
RightToes  -24.6912 -0.109124 -0.213429
Spine  -1.18823 -0.0595168 1.51433
Spine1  -2.3648 0.043968 3.75971
HEad  -69.9599 -15.5688 8.85715
LeftShoulder1  -1.94126e-019 -3.10601e-018 -2.51263e-017
LeftArm  19.5219 24.7026 -75.3183
LeftForeArm  129.907 -74.5043 -138.002
LeftHand  0.228243 -1.4897 -3.73139
RightShoulder  -4.96962e-017 0 -2.36833e-017
RightArm  18.6367 -24.4754 64.8813
RightForeArm  134.485 80.4226 110.487
RightHand  -0.0810383 2.16512 -1.42893
LeftUpLeg  -15.4535 -4.79697 13.71
LeftLeg  17.1263 2.49683 0.594201
LeftFoot  1.76231 0.00499988 0.248752
LeftToes  -32.1744 1.49739e-006 1.00523e-007
664
root  -34.5344 34.6747 3.52292 -166.481 46.0884 -175.391
RightUpLeg  -8.82675 -22.303 4.86087
RightLeg  0.0178739 0.462952 -0.029662
RightFoot  8.67674 0.0239341 0.230456
RightToes  -25.9238 -0.116883 -0.222662
Spine  -1.22769 0.0198108 1.55973
Spine1  -2.44064 0.203555 3.85115
HEad  -70.3607 -16.3417 8.80645
LeftShoulder1  -1.94126e-019 -3.10601e-018 -2.51263e-017
LeftArm  18.9076 25.5754 -75.3876
LeftForeArm  129.309 -74.4493 -138.045
LeftHand  0.227973 -1.4661 -3.74201
RightShoulder  -4.96962e-017 0 -2.36833e-017
RightArm  19.5025 -24.1614 64.4143
RightForeArm  134.307 80.3311 111.247
RightHand  -0.0495356 1.9584 -0.953052
LeftUpLeg  -15.1371 -4.65152 12.6115
LeftLeg  16.245 2.90554 0.644869
LeftFoot  2.08694 0.00302825 0.278361
LeftToes  -27.0312 1.49739e-006 1.00523e-007
665
root  -34.8796 34.6839 3.08328 -166.656 46.2293 -175.601
RightUpLeg  -8.72797 -21.9762 3.74025
RightLeg  0.0125525 0.162226 -0.0104084
RightFoot  9.34073 0.0300635 0.188947
RightToes  -27.1232 -0.124621 -0.231483
Spine  -1.29213 0.0679817 1.55276
Spine1  -2.56584 0.305738 3.83657
HEad  -70.7839 -17.2434 8.78249
LeftShoulder1  -1.94126e-019 -3.10601e-018 -2.51263e-017
LeftArm  18.2927 26.377 -75.4106
LeftForeArm  126.712 -74.3654 -137.793
LeftHand  0.200589 -1.27152 -3.39221
RightShoulder  -4.96962e-017 0 -2.36833e-017
RightArm  20.6134 -23.8605 63.6688
RightForeArm  132.779 80.1244 112.419
RightHand  -0.00274495 1.74237 -0.199604
LeftUpLeg  -14.4464 -5.63273 11.4985
LeftLeg  15.2451 4.46605 0.910588
LeftFoot  1.73109 0.0012221 0.307807
LeftToes  -27.6768 1.49739e-006 1.00523e-007
666
root  -35.2668 34.7221 2.58123 -167.565 46.3346 -176.63
RightUpLeg  -8.45692 -21.8584 1.901
RightLeg  -0.00932545 -0.0652089 0.00420781
RightFoot  10.0704 0.0356936 0.152971
RightToes  -28.2974 -0.132374 -0.23996
Spine  -1.34338 0.0726431 1.30983
Spine1  -2.67106 0.316228 3.35068
HEad  -71.0195 -18.3313 8.78654
LeftShoulder1  -1.94126e-019 -3.10601e-018 -2.51263e-017
LeftArm  17.5637 27.1384 -75.216
LeftForeArm  124.359 -74.0563 -138.221
LeftHand  0.162695 -0.715061 -3.03955
RightShoulder  -4.96962e-017 0 -2.36833e-017
RightArm  21.424 -23.8544 63.3387
RightForeArm  130.101 79.9887 112.467
RightHand  0.0461929 1.51321 0.640038
LeftUpLeg  -13.7469 -7.67741 9.76828
LeftLeg  14.4264 6.56695 1.24116
LeftFoot  1.87253 -0.00373151 0.389879
LeftToes  -26.2493 1.49739e-006 1.00523e-007
667
root  -35.6671 34.7581 2.06135 -168.541 46.6569 -177.735
RightUpLeg  -8.1646 -21.3873 -0.0445362
RightLeg  -0.0941855 -0.436369 0.0288004
RightFoot  10.8313 0.0428719 0.0838711
RightToes  -29.1722 -0.138262 -0.246172
Spine  -1.39796 0.187775 0.948431
Spine1  -2.7789 0.542155 2.62793
HEad  -71.1193 -19.5783 8.95788
LeftShoulder1  -1.94126e-019 -3.10601e-018 -2.51263e-017
LeftArm  17.1975 27.5719 -74.7159
LeftForeArm  125.269 -73.6705 -139.411
LeftHand  0.143996 -0.549436 -2.77563
RightShoulder  -4.96962e-017 0 -2.36833e-017
RightArm  21.62 -24.5072 63.4826
RightForeArm  129.97 79.842 113.613
RightHand  0.0569516 1.2285 0.884543
LeftUpLeg  -13.3583 -9.47849 7.98437
LeftLeg  14.3526 8.34771 1.56492
LeftFoot  2.04955 -0.00833779 0.477667
LeftToes  -25.441 1.49739e-006 1.00523e-007
668
root  -36.0822 34.7721 1.54469 -169.308 47.2726 -178.668
RightUpLeg  -8.32635 -20.686 -1.84302
RightLeg  0.372732 -0.707348 0.0410574
RightFoot  11.3696 0.0485867 0.0277048
RightToes  -30.1937 -0.145257 -0.25331
Spine  -1.42633 0.391334 0.607917
Spine1  -2.83421 0.944702 1.9434
HEad  -71.5852 -20.7845 9.18237
LeftShoulder1  -1.94126e-019 -3.10601e-018 -2.51263e-017
LeftArm  16.8901 27.7008 -74.2146
LeftForeArm  126.986 -73.3585 -140.494
LeftHand  0.148992 -0.775732 -2.74341
RightShoulder  -4.96962e-017 0 -2.36833e-017
RightArm  21.4862 -25.5507 63.7264
RightForeArm  133.34 79.5683 116.95
RightHand  0.0336722 1.15013 0.488241
LeftUpLeg  -13.0106 -9.92691 6.20932
LeftLeg  14.2645 9.20277 1.70946
LeftFoot  1.86481 -0.0073703 0.479714
LeftToes  -24.2894 1.49739e-006 1.00523e-007
669
root  -36.5204 34.7619 1.02199 -170.23 48.3135 -179.798
RightUpLeg  -8.80736 -19.8143 -3.78759
RightLeg  1.20662 -0.706351 0.0309175
RightFoot  11.7342 0.0505286 0.022968
RightToes  -31.5121 -0.154471 -0.262337
Spine  -1.41285 0.659413 0.262471
Spine1  -2.81121 1.46943 1.24855
HEad  -72.2448 -21.6815 9.30238
LeftShoulder1  -1.94126e-019 -3.10601e-018 -2.51263e-017
LeftArm  16.4483 27.7496 -73.7874
LeftForeArm  127.99 -73.1594 -141.15
LeftHand  0.146801 -0.789542 -2.49605
RightShoulder  -4.96962e-017 0 -2.36833e-017
RightArm  21.4449 -25.9014 63.9338
RightForeArm  135.882 79.37 119.191
RightHand  0.0222013 0.875787 0.3243
LeftUpLeg  -12.6146 -8.92327 4.13834
LeftLeg  14.1314 9.2388 1.69404
LeftFoot  1.40231 -0.00296858 0.40413
LeftToes  -22.1594 1.49739e-006 1.00523e-007
670
root  -36.9734 34.7366 0.519999 -171.097 49.4769 179.107
RightUpLeg  -9.56613 -19.0374 -5.6186
RightLeg  2.25789 -0.45146 0.0118287
RightFoot  12.0051 0.0482878 0.069799
RightToes  -32.6192 -0.162367 -0.269751
Spine  -1.40353 0.84904 -0.0276802
Spine1  -2.79804 1.83348 0.668314
HEad  -72.7358 -22.1427 9.13826
LeftShoulder1  -1.94126e-019 -3.10601e-018 -2.51263e-017
LeftArm  15.49 27.9151 -73.6509
LeftForeArm  128.291 -73.3011 -140.859
LeftHand  0.143726 -0.845766 -2.44821
RightShoulder  -4.96962e-017 0 -2.36833e-017
RightArm  21.6249 -25.545 64.1613
RightForeArm  136.011 79.4608 118.625
RightHand  0.00189423 0.959352 -0.0611611
LeftUpLeg  -12.4704 -8.17727 2.16891
LeftLeg  14.3225 9.53259 1.78014
LeftFoot  0.812695 -0.00105488 0.310316
LeftToes  -19.5293 1.49739e-006 1.00523e-007
671
root  -37.4277 34.6961 0.043935 -171.892 50.7912 178.048
RightUpLeg  -10.6182 -18.2464 -7.30064
RightLeg  3.49056 -0.0568582 0.000997905
RightFoot  12.2488 0.0427927 0.149214
RightToes  -33.704 -0.170241 -0.276868
Spine  -1.3758 1.0057 -0.302979
Spine1  -2.75016 2.13933 0.114364
HEad  -73.2351 -22.145 8.96421
LeftShoulder1  -1.94126e-019 -3.10601e-018 -2.51263e-017
LeftArm  14.1076 28.2302 -73.7433
LeftForeArm  128.154 -73.5996 -140.092
LeftHand  0.141235 -0.934172 -2.55522
RightShoulder  -4.96962e-017 0 -2.36833e-017
RightArm  21.7573 -25.0069 64.5051
RightForeArm  135.275 79.7108 116.616
RightHand  -0.015144 1.10069 -0.379496
LeftUpLeg  -12.6519 -7.85695 0.323963
LeftLeg  14.9993 10.3347 2.05417
LeftFoot  0.116764 -3.18596e-005 0.193084
LeftToes  -17.1219 1.49739e-006 1.00523e-007
672
root  -37.8569 34.6506 -0.382961 -172.479 52.2888 177.225
RightUpLeg  -11.7738 -17.0334 -8.69073
RightLeg  4.59478 0.0758517 0.00216213
RightFoot  12.6278 0.0395792 0.176398
RightToes  -34.4997 -0.176102 -0.281992
Spine  -1.33986 1.17087 -0.527306
Spine1  -2.68528 2.46371 -0.338058
HEad  -73.7165 -21.996 8.92489
LeftShoulder1  -1.94126e-019 -3.10601e-018 -2.51263e-017
LeftArm  12.7285 28.6543 -73.8397
LeftForeArm  127.781 -73.8301 -139.431
LeftHand  0.139792 -0.750915 -2.58228
RightShoulder  -4.96962e-017 0 -2.36833e-017
RightArm  21.82 -24.3027 64.8494
RightForeArm  133.341 79.972 113.886
RightHand  -0.0287966 1.15396 -0.624607
LeftUpLeg  -12.9572 -7.1631 -1.25243
LeftLeg  15.579 11.092 2.31885
LeftFoot  -0.561106 -0.000502947 0.0587735
LeftToes  -15.2992 1.49739e-006 1.00523e-007
673
root  -38.2512 34.5912 -0.779811 -173.083 54.1265 176.346
RightUpLeg  -13.195 -15.9227 -9.95007
RightLeg  5.82401 0.647331 0.0252547
RightFoot  12.9769 0.0256369 0.305607
RightToes  -35.5351 -0.183834 -0.288537
Spine  -1.31031 1.38366 -0.800203
Spine1  -2.64283 2.9004 -0.897831
HEad  -74.126 -21.568 9.167
LeftShoulder1  -1.94126e-019 -3.10601e-018 -2.51263e-017
LeftArm  11.7989 29.0286 -73.4578
LeftForeArm  128.589 -73.8882 -139.419
LeftHand  0.141333 -0.65989 -2.66108
RightShoulder  -4.96962e-017 0 -2.36833e-017
RightArm  21.2842 -24.3932 65.5062
RightForeArm  133.549 80.0046 113.721
RightHand  -0.0271352 1.43809 -0.596318
LeftUpLeg  -13.3312 -5.94586 -2.80257
LeftLeg  16.2205 11.7277 2.58606
LeftFoot  -1.33763 -0.00319437 -0.11212
LeftToes  -13.2512 1.49739e-006 1.00523e-007
